<svg width="195" height="50" fill="none" xmlns="http://www.w3.org/2000/svg"><path d="M79.465.534h20.224V3.41H82.622v9.551h14.184v2.877H82.622v9.792H99.89v2.877H79.465V.534zM135.5.541h3.157V25.6h14.585v2.917H135.5V.54zm27.487 0h-3.157v27.975h3.157V.54zM27.227 18.323l5.894-14.27 5.853 14.27H27.227zM34.703.522h-3.084L19.43 28.556h3.238l3.317-7.396h14.231l3.277 7.396h3.398L34.703.522zm82.821 14.284h-7.549V3.446h7.589c4.533 0 7.683 2.082 7.683 5.52.007 3.684-3.504 5.84-7.723 5.84zm10.814 13.723l-5.38-11.834c2.957-1.449 5.507-4.199 5.507-7.77 0-2.276-.801-4.238-2.17-5.6-1.762-1.762-5.033-2.797-8.484-2.797h-11v27.994h3.171v-10.88h9.164l.861-.006 4.927 10.88h3.404v.013zM16.06 13.444H3.17V3.452h17.756l.006-2.924H0V28.53h3.17V16.328h12.876l.014-2.884zm47.491 12.254c4.252 0 6.902-1.882 6.902-5.08 0-3.037-2.57-4.799-7.47-4.799H54.7v9.879h8.851zm-1.128-12.682c3.811 0 6.461-1.722 6.461-5.08 0-2.757-2.209-4.559-6.22-4.559H54.7v9.639h7.723zM51.57.534h11.38c3.211 0 5.78.88 7.35 2.476 1.16 1.202 1.802 2.677 1.802 4.56 0 3.637-2.243 5.52-4.452 6.48 3.33 1.002 5.606 2.717 5.606 6.635 0 4.8-3.637 7.843-9.785 7.843H51.57V.534zm140.813 20.639a11.538 11.538 0 01-9.384 4.812c-6.388 0-11.561-5.16-11.561-11.52 0-6.362 5.173-11.521 11.561-11.521 3.971 0 7.469 1.995 9.551 5.04l2.45-1.63A14.467 14.467 0 00183.005 0c-8.016 0-14.518 6.475-14.518 14.464 0 7.99 6.502 14.465 14.518 14.465a14.46 14.46 0 0011.821-6.094l-2.443-1.662zM1.575 48.127h.721c.741 0 1.235-.053 1.469-.16.367-.167.547-.514.547-1.041 0-.541-.207-.895-.627-1.062-.26-.107-.708-.16-1.355-.16h-.755v2.423zm0-3.684h.694c.528 0 .908-.047 1.142-.14.347-.148.52-.448.52-.895 0-.44-.166-.734-.5-.881-.227-.1-.648-.147-1.248-.147h-.601v2.063h-.007zM0 41.072h2.243c.888 0 1.542.066 1.949.207.434.146.767.407 1.001.78.207.32.307.695.307 1.115 0 .568-.167 1.008-.507 1.322-.194.18-.48.327-.861.447 1.221.28 1.829.968 1.829 2.076 0 .7-.24 1.268-.721 1.709-.414.38-1.001.6-1.756.667-.307.027-.807.034-1.502.034H0v-8.357zm10.36 3.343h3.317v1.375H10.36v2.27h3.784v1.374H8.751v-8.363h5.26v1.375H10.36v1.969zm10.258-3.345h1.796l1.762 3.338 1.729-3.337h1.769l-2.717 5.066v3.297h-1.609v-3.297l-2.73-5.066zm12.302 1.216c-.64 0-1.134.234-1.475.701-.414.56-.627 1.308-.627 2.23 0 .974.207 1.742.627 2.309.34.467.834.7 1.482.7.647 0 1.135-.233 1.475-.7.414-.567.62-1.328.62-2.27 0-.947-.206-1.708-.62-2.262-.34-.474-.834-.708-1.482-.708zm.007-1.375c1.021 0 1.876.334 2.556 1.002.808.78 1.215 1.895 1.215 3.337 0 1.448-.407 2.563-1.215 3.344-.68.667-1.535.995-2.556.995-1.035 0-1.889-.334-2.57-.995-.808-.78-1.215-1.922-1.215-3.404 0-.668.114-1.315.34-1.95a3.382 3.382 0 011.576-1.848 3.73 3.73 0 011.869-.48zm6.541.159h1.61v4.8c0 .667.046 1.128.133 1.382.113.32.307.56.594.72.273.154.594.227.968.227.887 0 1.428-.367 1.615-1.1.053-.234.087-.642.087-1.23v-4.798h1.608v4.826c0 .627-.026 1.088-.08 1.375-.12.7-.447 1.255-.974 1.648-.595.447-1.349.668-2.263.668-.908 0-1.662-.22-2.256-.668-.528-.394-.848-.948-.975-1.648-.053-.287-.08-.748-.08-1.375V41.07h.013zm11.482 3.799h.58c.654 0 1.108-.047 1.362-.14.227-.087.407-.234.534-.434.12-.187.18-.407.18-.654 0-.454-.18-.782-.534-.982-.2-.113-.474-.18-.828-.2a19.66 19.66 0 00-.834-.013h-.46v2.423zm-1.61-3.798h2.09c.775 0 1.355.033 1.742.1.681.113 1.202.414 1.576.908.327.434.487.954.487 1.562 0 1.1-.494 1.875-1.482 2.329l1.93 3.464h-1.877l-1.708-3.19H50.95v3.19h-1.61v-8.363zm15.125 7.055h.721c.741 0 1.235-.053 1.469-.16.367-.167.554-.514.554-1.041 0-.541-.214-.895-.635-1.062-.26-.107-.707-.16-1.355-.16h-.76v2.423h.006zm0-3.684h.694c.528 0 .908-.047 1.142-.14.347-.148.52-.448.52-.895 0-.44-.166-.734-.5-.881-.227-.1-.648-.147-1.248-.147h-.601v2.063h-.007zM62.89 41.07h2.243c.888 0 1.542.066 1.949.207.434.146.767.407 1.001.78.207.321.307.695.307 1.115 0 .568-.167 1.008-.507 1.322-.194.18-.48.327-.861.447 1.221.28 1.829.968 1.829 2.076 0 .7-.24 1.268-.721 1.709-.414.38-1.001.6-1.756.667-.307.027-.807.034-1.501.034h-1.97V41.07h-.013zm10.36 3.345h3.317v1.375H73.25v2.27h3.784v1.374h-5.4v-8.363h5.267v1.375H73.25v1.969zm11.981-.895H83.69c-.026-.307-.113-.56-.267-.754-.247-.314-.614-.474-1.101-.474-.32 0-.594.074-.828.227-.26.174-.393.4-.393.681 0 .26.14.474.427.634.16.087.614.28 1.375.587.754.3 1.208.494 1.368.588.48.267.808.587.988.968.14.307.214.654.214 1.041 0 .848-.314 1.508-.942 1.982-.507.394-1.188.588-2.042.588-1.322 0-2.25-.427-2.797-1.282-.28-.434-.434-1.008-.467-1.722h1.555c.107 1.075.681 1.615 1.722 1.615.394 0 .714-.086.968-.253.24-.16.36-.374.36-.641 0-.32-.193-.587-.573-.794-.154-.08-.635-.294-1.449-.634-.874-.367-1.448-.701-1.735-1.002-.388-.42-.581-.927-.581-1.528 0-.6.193-1.122.574-1.549.3-.334.694-.58 1.181-.734.34-.113.708-.167 1.095-.167.654 0 1.222.147 1.696.434.547.327.907.788 1.074 1.368.06.234.1.501.12.821zm2.263-2.45h6.02v1.376h-2.209v6.988H89.69v-6.988h-2.196V41.07z" fill="#000"/></svg>