<svg width="195" height="50" viewBox="0 0 195 50" fill="none" xmlns="http://www.w3.org/2000/svg">
<path d="M79.4645 0.533752H99.6893V3.41062H82.6217V12.9624H96.8058V15.8392H82.6217V25.6313H99.8896V28.5081H79.4645V0.533752Z" fill="black"/>
<path d="M135.5 0.54126H138.657V25.5987H153.242V28.5156H135.5V0.54126Z" fill="black"/>
<path d="M162.987 0.54126H159.83V28.5156H162.987V0.54126Z" fill="black"/>
<path d="M27.2267 18.3234L33.1206 4.05255L38.9744 18.3234H27.2267ZM34.7025 0.521545H31.6187L19.4304 28.556H22.6677L25.9851 21.1602H40.216L43.4933 28.556H46.8908L34.7025 0.521545Z" fill="black"/>
<path d="M117.524 14.8057H109.975V3.44506H117.564C122.097 3.44506 125.247 5.52761 125.247 8.96517C125.254 12.6497 121.743 14.8057 117.524 14.8057ZM128.338 28.5292L122.958 16.6947C125.915 15.2462 128.465 12.4962 128.465 8.92512C128.465 6.64899 127.664 4.68658 126.295 3.32491C124.533 1.56274 121.262 0.528137 117.811 0.528137H106.811V28.5225H109.982V17.6425H119.146L120.007 17.6358L124.934 28.5159H128.338V28.5292Z" fill="black"/>
<path d="M16.0597 13.444H3.17056V3.45173H20.9257L20.9324 0.528137H0V28.5292H3.17056V16.3276H16.0464L16.0597 13.444Z" fill="black"/>
<path d="M63.5512 25.698C67.8031 25.698 70.453 23.8157 70.453 20.6184C70.453 17.5814 67.8832 15.8192 62.9838 15.8192H54.7003V25.698H63.5512ZM62.4232 13.0158C66.2345 13.0158 68.8844 11.2936 68.8844 7.93618C68.8844 5.17946 66.675 3.37725 62.6635 3.37725H54.7003V13.0158H62.4232ZM51.5698 0.533752H62.9505C66.1611 0.533752 68.7309 1.41484 70.2995 3.01013C71.4609 4.21161 72.1017 5.68675 72.1017 7.56906C72.1017 11.2069 69.859 13.0892 67.6496 14.0504C70.9803 15.0516 73.2565 16.767 73.2565 20.6852C73.2565 25.4844 69.6187 28.5282 63.4711 28.5282H51.5698V0.533752Z" fill="black"/>
<path d="M192.383 21.1727C190.288 24.0829 186.87 25.9853 182.999 25.9853C176.611 25.9853 171.438 20.8256 171.438 14.4644C171.438 8.10329 176.611 2.94362 182.999 2.94362C186.97 2.94362 190.468 4.9394 192.55 7.98314L195 6.35448C192.397 2.5231 188.005 0 183.005 0C174.989 0 168.487 6.47462 168.487 14.4644C168.487 22.4543 174.989 28.9289 183.005 28.9289C187.891 28.9289 192.203 26.5259 194.826 22.8347L192.383 21.1727Z" fill="black"/>
<path d="M1.57527 48.127H2.29615C3.03707 48.127 3.53101 48.0736 3.76463 47.9668C4.13174 47.7999 4.31197 47.4528 4.31197 46.9255C4.31197 46.3849 4.10504 46.0311 3.68453 45.8642C3.42421 45.7574 2.97699 45.704 2.32953 45.704H1.57527V48.127ZM1.57527 44.4425H2.26946C2.79677 44.4425 3.17724 44.3957 3.41086 44.3023C3.75795 44.1554 3.9315 43.8551 3.9315 43.4079C3.9315 42.9673 3.76463 42.6736 3.43088 42.5268C3.20394 42.4267 2.78342 42.3799 2.18268 42.3799H1.58194V44.4425H1.57527ZM0 41.0717H2.24276C3.13051 41.0717 3.78465 41.1384 4.19182 41.2786C4.62568 41.4254 4.95943 41.6857 5.19305 42.0595C5.39997 42.3799 5.50009 42.7537 5.50009 43.1742C5.50009 43.7416 5.33322 44.1821 4.9928 44.4959C4.79923 44.6761 4.51221 44.8229 4.13174 44.9431C5.35325 45.2234 5.96066 45.9109 5.96066 47.019C5.96066 47.7198 5.72036 48.2872 5.23977 48.7277C4.82593 49.1082 4.23854 49.3285 3.48428 49.3952C3.17724 49.4219 2.67662 49.4286 1.98244 49.4286H0V41.0717Z" fill="black"/>
<path d="M10.3595 44.4148H13.6769V45.7898H10.3595V48.0593H14.1441V49.4343H8.75085V41.0707H14.0107V42.4457H10.3595V44.4148Z" fill="black"/>
<path d="M20.6184 41.0707H22.4139L24.1761 44.4081L25.9049 41.0707H27.6737L24.9571 46.1369V49.4343H23.3484V46.1369L20.6184 41.0707Z" fill="black"/>
<path d="M32.9203 42.2863C32.2795 42.2863 31.7856 42.5199 31.4452 42.9871C31.0313 43.5478 30.8177 44.2954 30.8177 45.2165C30.8177 46.1911 31.0246 46.9587 31.4452 47.526C31.7856 47.9933 32.2795 48.2269 32.927 48.2269C33.5744 48.2269 34.0617 47.9933 34.4021 47.526C34.816 46.9587 35.0229 46.1978 35.0229 45.2566C35.0229 44.3088 34.816 43.5478 34.4021 42.9938C34.0617 42.5199 33.5678 42.2863 32.9203 42.2863ZM32.927 40.9113C33.9482 40.9113 34.8026 41.245 35.4835 41.9125C36.2911 42.6934 36.6983 43.8081 36.6983 45.2499C36.6983 46.6984 36.2911 47.8131 35.4835 48.594C34.8026 49.2615 33.9482 49.5886 32.927 49.5886C31.8924 49.5886 31.038 49.2548 30.3572 48.594C29.5495 47.8131 29.1423 46.6717 29.1423 45.1898C29.1423 44.5224 29.2558 43.8749 29.4828 43.2408C29.7764 42.4331 30.3038 41.8124 31.058 41.3918C31.6254 41.0715 32.2461 40.9113 32.927 40.9113Z" fill="black"/>
<path d="M39.4684 41.0707H41.0771V45.8699C41.0771 46.5374 41.1238 46.998 41.2106 47.2516C41.324 47.572 41.5176 47.8123 41.8046 47.9725C42.0783 48.126 42.3987 48.1994 42.7725 48.1994C43.6602 48.1994 44.2009 47.8323 44.3878 47.0981C44.4412 46.8645 44.4746 46.4573 44.4746 45.8699V41.0707H46.0832V45.8966C46.0832 46.524 46.0565 46.9846 46.0031 47.2716C45.883 47.9725 45.5559 48.5265 45.0286 48.9203C44.4345 49.3675 43.6803 49.5878 42.7658 49.5878C41.858 49.5878 41.1038 49.3675 40.5097 48.9203C39.9824 48.5265 39.662 47.9725 39.5352 47.2716C39.4818 46.9846 39.4551 46.524 39.4551 45.8966V41.0707H39.4684Z" fill="black"/>
<path d="M50.9496 44.8687H51.5303C52.1844 44.8687 52.6383 44.822 52.892 44.7285C53.1189 44.6417 53.2991 44.4949 53.426 44.2946C53.5461 44.1077 53.6062 43.8875 53.6062 43.6405C53.6062 43.1866 53.426 42.8595 53.0722 42.6593C52.872 42.5458 52.5983 42.4791 52.2445 42.4591C52.1043 42.4524 51.824 42.4457 51.4102 42.4457H50.9496V44.8687ZM49.3409 41.0707H51.4302C52.2045 41.0707 52.7852 41.1041 53.1723 41.1708C53.8532 41.2843 54.3738 41.5846 54.7476 42.0786C55.0747 42.5125 55.2349 43.0331 55.2349 43.6405C55.2349 44.7419 54.7409 45.5161 53.753 45.97L55.6821 49.4343H53.8064L52.0977 46.2437H50.9496V49.4343H49.3409V41.0707Z" fill="black"/>
<path d="M64.4653 48.126H65.1862C65.9271 48.126 66.421 48.0726 66.6546 47.9658C67.0218 47.7989 67.2087 47.4519 67.2087 46.9245C67.2087 46.3839 66.9951 46.0301 66.5745 45.8632C66.3142 45.7564 65.867 45.703 65.2195 45.703H64.4586V48.126H64.4653ZM64.4653 44.4415H65.1595C65.6868 44.4415 66.0673 44.3948 66.3009 44.3013C66.648 44.1545 66.8215 43.8541 66.8215 43.4069C66.8215 42.9663 66.6546 42.6726 66.3209 42.5258C66.094 42.4257 65.6734 42.379 65.0727 42.379H64.472V44.4415H64.4653ZM62.89 41.0707H65.1328C66.0205 41.0707 66.6747 41.1374 67.0818 41.2776C67.5157 41.4244 67.8494 41.6848 68.0831 42.0586C68.29 42.379 68.3901 42.7527 68.3901 43.1733C68.3901 43.7406 68.2232 44.1812 67.8828 44.4949C67.6892 44.6751 67.4022 44.822 67.0218 44.9421C68.2433 45.2224 68.8507 45.91 68.8507 47.018C68.8507 47.7189 68.6104 48.2862 68.1298 48.7268C67.7159 49.1072 67.1286 49.3275 66.3743 49.3942C66.0673 49.4209 65.5666 49.4276 64.8725 49.4276H62.9034V41.0707H62.89Z" fill="black"/>
<path d="M73.2496 44.4148H76.567V45.7898H73.2496V48.0593H77.0342V49.4343H71.6343V41.0707H76.9007V42.4457H73.2496V44.4148Z" fill="black"/>
<path d="M85.2313 43.5204H83.6894C83.6627 43.2133 83.5759 42.9597 83.4224 42.7661C83.1754 42.4524 82.8083 42.2922 82.321 42.2922C82.0006 42.2922 81.7269 42.3656 81.4933 42.5191C81.233 42.6927 81.0995 42.9196 81.0995 43.2C81.0995 43.4603 81.2397 43.6739 81.5267 43.8341C81.6869 43.9209 82.1408 44.1144 82.9017 44.4215C83.656 44.7219 84.1099 44.9154 84.2701 45.0089C84.7507 45.2759 85.0777 45.5963 85.258 45.9767C85.3981 46.2838 85.4716 46.6309 85.4716 47.018C85.4716 47.8657 85.1578 48.5265 84.5304 49.0004C84.0231 49.3943 83.3423 49.5878 82.4879 49.5878C81.1663 49.5878 80.2385 49.1606 79.6911 48.3063C79.4108 47.8724 79.2573 47.2984 79.2239 46.5841H80.7791C80.8859 47.6588 81.46 48.1995 82.5012 48.1995C82.8951 48.1995 83.2154 48.1127 83.4691 47.9458C83.7094 47.7856 83.8295 47.572 83.8295 47.305C83.8295 46.9846 83.636 46.7176 83.2555 46.5107C83.102 46.4306 82.6214 46.217 81.807 45.8766C80.9326 45.5095 80.3586 45.1757 80.0716 44.8754C79.6844 44.4549 79.4909 43.9476 79.4909 43.3468C79.4909 42.7461 79.6844 42.2255 80.0649 41.7983C80.3653 41.4645 80.7591 41.2175 81.2464 41.064C81.5868 40.9506 81.9539 40.8972 82.341 40.8972C82.9952 40.8972 83.5625 41.044 84.0365 41.331C84.5838 41.6581 84.9442 42.1187 85.1111 42.6994C85.1712 42.933 85.2112 43.2 85.2313 43.5204Z" fill="black"/>
<path d="M87.4939 41.0707H93.5146V42.4457H91.3052V49.4343H89.6899V42.4457H87.4939V41.0707Z" fill="black"/>
</svg>
